<svg width="256" height="256" xmlns="http://www.w3.org/2000/svg" xml:space="preserve" version="1.1">
 <defs>
  <linearGradient y2="0.95941" x2="0.95937" y1="0.04095" x1="0.0409" id="SVGID_1_">
   <stop stop-color="#5E72E4" offset="0"/>
   <stop stop-color="#778AFF" offset="1"/>
  </linearGradient>
  <linearGradient y2="-Infinity" x2="-Infinity" y1="-Infinity" x1="-Infinity" id="SVGID_2_">
   <stop stop-color="#5E72E4" offset="0"/>
   <stop stop-color="#778AFF" offset="1"/>
  </linearGradient>
 </defs>
 <g>
  <title>Layer 1</title>
  <g id="svg_1">
   <path id="svg_2" fill="url(#SVGID_1_)" clip-rule="evenodd" fill-rule="evenodd" d="m36.4,-0.8l183.8,0c19.7,0 35.7,16 35.7,35.7l0,183.8c0,19.7 -16,35.7 -35.7,35.7l-183.8,0c-19.7,0 -35.7,-16 -35.7,-35.7l0,-183.8c0,-19.7 16,-35.7 35.7,-35.7z" class="st0"/>
   <path id="svg_3" fill="url(#SVGID_2_)" clip-rule="evenodd" fill-rule="evenodd" d="m-2.3,2.2" class="st1"/>
  </g>
  <path id="svg_4" fill="#FFFFFF" d="m128.3,32.6c-43.9,0 -79.4,35.6 -79.4,79.4c0,35.3 23.1,65.2 55,75.6l9.9,-40.1c-14,-5.7 -23.8,-19.4 -23.8,-35.5c0,-21.2 17.2,-38.3 38.3,-38.3c21.2,0 38.3,17.2 38.3,38.3c0,16 -9.8,29.7 -23.8,35.5l9.9,40.1c31.9,-10.3 55,-40.2 55,-75.6c0.1,-43.8 -35.5,-79.4 -79.4,-79.4z" class="st2"/>
  <g id="svg_5">
   <text font-weight="bold" xml:space="preserve" text-anchor="start" font-family="Noto Sans JP" font-size="50" stroke-width="0" id="svg_14" y="232.5" x="48.8125" fill="#ffffff">VSocks</text>
  </g>
 </g>
</svg>